PathFileType	4	(X/Y/Z)	..\data\2014015\dynamic\2014015_C5_03.trc
DataRate	CameraRate	NumFrames	NumMarkers	Units	OrigDataRate	OrigDataStartFrame	OrigNumFrames
100.000000	100.000000	4	52	mm	100.000000	0	163
Frame#	Time	L_IAS			L_IPS			R_IPS			R_IAS			L_FTC			L_FLE			L_FME			L_FAX			L_TTC			L_FAL			L_TAM			L_FCC			L_FM1			L_FM2			L_FM5			R_FTC			R_FLE			R_FME			R_FAX			R_TTC			R_FAL			R_TAM			R_FCC			R_FM1			R_FM2			R_FM5			CV7			TV10			SXS			SJN			L_SIA			L_SRS			L_SAA			L_SAE			L_HLE			L_HME			L_UOA			L_RSP			L_UHE			L_HM2			L_HM5			R_SIA			R_SRS			R_SAA			R_SAE			R_HLE			R_HME			R_UOA			R_RSP			R_UHE			R_HM2			R_HM5			
		X1	Y1	Z1	X2	Y2	Z2	X3	Y3	Z3	X4	Y4	Z4	X5	Y5	Z5	X6	Y6	Z6	X7	Y7	Z7	X8	Y8	Z8	X9	Y9	Z9	X10	Y10	Z10	X11	Y11	Z11	X12	Y12	Z12	X13	Y13	Z13	X14	Y14	Z14	X15	Y15	Z15	X16	Y16	Z16	X17	Y17	Z17	X18	Y18	Z18	X19	Y19	Z19	X20	Y20	Z20	X21	Y21	Z21	X22	Y22	Z22	X23	Y23	Z23	X24	Y24	Z24	X25	Y25	Z25	X26	Y26	Z26	X27	Y27	Z27	X28	Y28	Z28	X29	Y29	Z29	X30	Y30	Z30	X31	Y31	Z31	X32	Y32	Z32	X33	Y33	Z33	X34	Y34	Z34	X35	Y35	Z35	X36	Y36	Z36	X37	Y37	Z37	X38	Y38	Z38	X39	Y39	Z39	X40	Y40	Z40	X41	Y41	Z41	X42	Y42	Z42	X43	Y43	Z43	X44	Y44	Z44	X45	Y45	Z45	X46	Y46	Z46	X47	Y47	Z47	X48	Y48	Z48	X49	Y49	Z49	X50	Y50	Z50	X51	Y51	Z51	X52	Y52	Z52	

1	0	-1234.062255859375	821.2708129882815	129.2497558593749	-1439.257934570313	857.467956542969	233.3006286621093	-1434.341186523438	851.326843261719	332.051300048828	-1212.054931640625	825.0794677734377	388.0422363281249	-1332.820434570313	753.4465332031251	77.70732116699205	-1421.127685546875	417.2364807128907	162.0318145751952	-1405.471069335938	420.0405883789064	303.595733642578	-1448.689697265625	367.8251342773438	162.8019256591795	-1389.205078125	359.2506408691407	211.5853881835936	-1571.932495117188	96.05600738525393	213.1287231445311	-1547.532958984375	104.9480743408203	301.2980346679686	-1618.792358398438	69.03013610839845	258.9244079589843	-1444.833862304688	17.89882850646973	296.0345764160155	-1429.09619140625	36.15321350097657	241.6183319091796	-1476.708862304688	23.07131958007813	183.7492675781249	-1264.859008789063	732.9006958007814	449.8175964355468	-1152.304565429688	414.6030883789064	391.5502319335938	-1115.412475585938	408.1911621093751	253.390167236328	-1132.365234375	366.4784240722657	392.2229919433594	-1074.515258789063	386.0655517578126	336.1452941894531	-1033.851806640625	66.04485321044923	353.6012573242187	-1008.17529296875	105.2599182128907	274.4129028320312	-1047.393310546875	19.360990524292	302.7119140624999	-883.883483886719	98.34731292724612	287.6961059570312	-883.2346801757815	110.7756042480469	340.8959350585937	-924.3638916015627	72.86837005615236	380.7497863769531	-1373.476928710938	1300.970581054688	261.2626647949218	-1436.554077148438	1108.283813476563	251.0740203857421	-1191.112426757813	1019.869995117188	269.019317626953	-1246.600219726563	1231.19384765625	267.545196533203	-1433.434692382813	1136.503051757813	177.9548187255858	-1395.260375976563	1256.2080078125	182.6275177001952	-1359.871826171875	1266.564697265625	124.5405654907225	-1297.453979492188	1260.341552734375	88.31626129150376	-1303.393676757813	992.3144531250002	18.86315727233871	-1337.336791992188	966.848327636719	98.78759765624986	-1338.799560546875	960.5388183593752	49.84861373901352	-1175.217895507813	815.2988891601565	54.1253738403319	-1226.216186523438	792.9294433593752	0.9801167249678066	-1115.462524414063	748.1174926757814	36.32374191284167	-1195.40625	719.0982055664064	-4.736148357391505	-1442.596923828125	1132.93310546875	349.0213623046874	-1403.3955078125	1253.915161132813	340.8407897949218	-1382.769165039063	1260.755737304688	399.7706909179687	-1309.392333984375	1257.155517578125	439.4804687499999	-1351.517944335938	985.049743652344	513.7969970703125	-1396.428833007813	980.6011352539065	422.5198059082031	-1397.226928710938	969.372985839844	479.7956848144531	-1279.37939453125	782.0614013671877	483.5700073242187	-1334.959350585938	775.2575683593752	538.1398315429688	-1252.68603515625	691.4466552734376	503.5263977050781	-1345.143920898438	706.2859497070314	542.8413696289062	
2	0.01	-1221.97607421875	820.952087402344	127.6333160400389	-1425.713012695313	856.3454589843752	235.3884735107421	-1420.032470703125	850.3203735351565	333.3103637695311	-1197.375854492188	824.090759277344	387.9794616699218	-1320.844482421875	753.1519775390626	78.20043945312486	-1410.612182617188	417.6125793457032	161.6305236816405	-1394.553833007813	420.2197875976564	303.2904663085936	-1438.913818359375	368.7265930175782	162.2496948242186	-1379.597900390625	358.8714599609376	211.1183471679686	-1569.151123046875	100.0542297363282	212.0425720214842	-1544.703002929688	108.4287796020508	300.2567443847655	-1616.917602539063	74.38036346435548	257.8035583496093	-1444.958862304688	17.50738143920899	296.0240478515624	-1428.7646484375	36.16790771484376	241.7040863037108	-1475.986572265625	23.13565254211426	183.7196044921874	-1250.740966796875	730.9900512695314	449.7902832031249	-1140.340698242188	412.5761718750001	390.2257080078125	-1104.909912109375	406.4147338867189	251.3379516601562	-1119.317626953125	364.9096984863282	390.5901184082031	-1062.21923828125	385.149871826172	333.6087646484374	-1015.490905761719	65.97569274902345	351.6481933593749	-991.374450683594	105.6727523803711	272.1076354980468	-1029.138061523438	19.34683418273926	301.0951538085937	-866.5179443359377	100.0684051513672	283.7727050781249	-865.4599609375002	112.327262878418	336.9337158203124	-905.6116333007815	73.67154693603517	377.2176208496093	-1360.06689453125	1299.761962890625	261.1354980468749	-1422.958740234375	1107.052368164063	251.2879486083983	-1178.104736328125	1018.559753417969	269.3040466308593	-1232.956909179688	1229.777954101563	267.7014770507811	-1419.96435546875	1135.427856445313	177.9816284179686	-1381.618408203125	1255.19775390625	182.4540863037108	-1346.015014648438	1265.284423828125	124.4677200317381	-1283.468872070313	1258.783325195313	88.41839599609361	-1289.078857421875	990.5960693359377	19.68719100952133	-1323.189208984375	965.226745605469	99.66525268554675	-1324.324829101563	958.7282714843752	50.90470886230454	-1160.568603515625	813.8820800781252	55.34201812744128	-1211.151489257813	791.5835571289065	1.791262745857091	-1100.634887695313	746.7292480468751	37.77130889892565	-1180.180786132813	717.9561157226564	-4.017201423645165	-1429.154052734375	1131.811157226563	348.9964294433593	-1390.006103515625	1252.863647460938	340.8610839843749	-1369.543823242188	1259.805908203125	399.7146606445312	-1296.202758789063	1256.216674804688	439.5662231445312	-1339.663940429688	984.2502441406252	513.9474487304688	-1383.886840820313	979.7174072265627	422.4137268066406	-1385.01953125	968.5225219726565	479.6613769531249	-1267.357299804688	781.1546020507815	483.9725952148437	-1323.166259765625	774.4097290039065	538.342529296875	-1240.785766601563	690.5767822265626	504.1415100097656	-1333.417236328125	705.4707031250001	542.9737548828125	
3	0.02	-1209.498779296875	820.863220214844	126.052146911621	-1411.823974609375	855.5462646484377	237.3849182128905	-1405.559204101563	849.552185058594	334.3063659667968	-1182.517333984375	823.2713012695315	388.0536499023437	-1308.42236328125	753.0796508789064	78.68740081787095	-1399.569580078125	418.1116027832032	161.1484985351561	-1382.851928710938	420.3036499023439	302.8854064941405	-1428.635620117188	369.7472229003907	161.6264190673827	-1369.32275390625	358.4545898437501	210.4393920898436	-1565.861694335938	104.3735809326172	210.9374389648436	-1541.162231445313	112.1263961791992	299.0799560546874	-1614.415649414063	80.22372436523439	256.7124633789061	-1445.157348632813	17.13594436645508	296.0506286621093	-1428.446166992188	36.1297836303711	241.8294677734374	-1475.234375	23.14287757873536	183.7414703369139	-1236.613403320313	729.2593383789064	449.7293701171874	-1127.832275390625	410.9839782714845	389.0305786132812	-1093.955200195313	404.9518127441407	249.6145629882812	-1106.106689453125	363.6046142578126	389.1090393066406	-1049.76416015625	384.1395568847657	331.1771240234374	-999.9309082031252	65.68005371093751	349.8118896484374	-977.0312500000002	105.4361572265625	269.8556518554687	-1014.197082519531	19.33616638183594	299.6766052246093	-851.8635864257815	99.74456787109378	279.8250732421874	-850.2586059570315	111.8823547363282	332.9194641113281	-889.7446899414065	73.13235473632814	373.7274475097656	-1346.618408203125	1298.711303710938	261.1612548828124	-1409.23046875	1105.902221679688	251.6773681640624	-1164.780395507813	1017.540100097656	269.6069335937499	-1219.252197265625	1228.597412109375	267.9242553710936	-1406.420532226563	1134.382934570313	178.1959686279295	-1368.016479492188	1254.247192382813	182.4432678222655	-1332.256591796875	1264.09033203125	124.5196151733397	-1269.6416015625	1257.340454101563	88.57875061035142	-1275.002685546875	988.9711914062502	20.64229011535629	-1309.13037109375	963.7273559570315	100.7225341796874	-1310.037475585938	957.0587158203127	52.12726211547837	-1146.259643554688	812.434265136719	56.61323547363268	-1196.509521484375	790.2607421875002	2.663866758346412	-1086.2177734375	745.2786254882814	39.22914123535143	-1165.404663085938	716.7982788085939	-3.27598333358779	-1415.52392578125	1130.756225585938	349.1232299804686	-1376.521606445313	1251.927368164063	341.0361938476561	-1356.1767578125	1258.97802734375	399.8091125488281	-1282.838989257813	1255.447387695313	439.7666625976562	-1327.556884765625	983.5823974609377	514.1600341796875	-1371.141235351563	979.0126953125002	422.3976135253906	-1372.585205078125	967.8394165039065	479.6182250976562	-1255.15966796875	780.3698730468752	484.3770141601562	-1311.202880859375	773.6758422851565	538.5375366210938	-1228.713256835938	689.8338623046876	504.7270202636718	-1321.533813476563	704.7584228515626	543.0711669921875	
4	0.03	-1196.529907226563	820.9593505859377	124.6228561401366	-1397.576416015625	855.075378417969	239.2139587402343	-1390.918823242188	849.0222778320315	335.0429077148436	-1167.46484375	822.661315917969	388.2284240722656	-1295.484375	753.1799316406251	79.16577911376939	-1387.942016601563	418.7028808593751	160.5606384277342	-1370.314086914063	420.2391967773439	302.3360900878905	-1417.821044921875	370.8620300292969	160.904586791992	-1358.317504882813	357.9602355957032	209.4931640624999	-1561.969970703125	108.9942169189453	209.8098144531249	-1536.790649414063	115.9905242919922	297.7475280761718	-1611.1416015625	86.57205200195314	255.6552276611327	-1445.44775390625	16.85176086425782	296.1378784179686	-1428.172119140625	36.02658843994141	242.0118560791014	-1474.490966796875	23.10102462768555	183.8297271728514	-1222.392456054688	727.8210449218751	449.6628417968749	-1114.773681640625	409.8602294921876	387.9757385253906	-1082.4619140625	403.8489074707032	248.2495727539062	-1092.731323242188	362.5791015625001	387.7984619140625	-1037.119995117188	383.0820617675782	328.9210205078124	-986.995544433594	65.12329101562501	348.1204833984374	-964.9255981445315	104.5308456420899	267.7052001953124	-1002.354125976563	19.28680992126465	298.4744567871093	-839.6997070312502	97.35064697265628	275.9246520996093	-837.4149169921877	109.4201202392578	328.9268798828124	-876.571960449219	71.24022674560548	370.3624572753906	-1333.127075195313	1297.845336914063	261.345733642578	-1395.364624023438	1104.859741210938	252.2403869628905	-1151.118408203125	1016.843872070313	269.9250183105468	-1205.490112304688	1227.69482421875	268.2127075195311	-1392.79248046875	1133.387329101563	178.5961303710936	-1354.455322265625	1253.373291015625	182.6043853759764	-1318.607299804688	1263.015014648438	124.7022171020507	-1255.987915039063	1256.062133789063	88.79634094238267	-1261.168701171875	987.4851074218752	21.71946334838852	-1295.14013671875	962.3933105468752	101.9543609619139	-1295.94873046875	955.578063964844	53.50305175781236	-1132.307006835938	810.9943847656252	57.92296218872058	-1182.314697265625	788.9936523437502	3.603956460952615	-1072.226318359375	743.8049316406251	40.67570495605457	-1151.111450195313	715.6508789062501	-2.502931594848774	-1401.708374023438	1129.793579101563	349.4049987792968	-1362.940795898438	1251.129150390625	341.3617248535155	-1342.666625976563	1258.29248046875	400.0533142089843	-1269.300048828125	1254.86962890625	440.0827941894531	-1315.153686523438	983.0638427734377	514.4329223632812	-1358.175903320313	978.5085449218752	422.4753417968749	-1359.8994140625	967.3445434570315	479.6714172363281	-1242.779663085938	779.7173461914065	484.7880249023437	-1299.067260742188	773.072692871094	538.7294921875	-1216.476318359375	689.2210083007814	505.2883300781249	-1309.499755859375	704.1686401367189	543.1414184570312	
